<svg xmlns="http://www.w3.org/2000/svg" viewBox="0 0 32 32">
  <defs>
    <!-- Purple gradient for the amethyst -->
    <linearGradient id="amethyst-gradient" x1="0%" y1="0%" x2="100%" y2="100%">
      <stop offset="0%" stop-color="#c084fc"/>
      <stop offset="30%" stop-color="#a855f7"/>
      <stop offset="70%" stop-color="#9333ea"/>
      <stop offset="100%" stop-color="#7c3aed"/>
    </linearGradient>
    
    <!-- Lighter gradient for highlights -->
    <linearGradient id="highlight-gradient" x1="0%" y1="0%" x2="100%" y2="100%">
      <stop offset="0%" stop-color="#e9d5ff"/>
      <stop offset="50%" stop-color="#d8b4fe"/>
      <stop offset="100%" stop-color="#c084fc"/>
    </linearGradient>
  </defs>
  
  <!-- Main amethyst crystal shape based on pixel art -->
  <!-- Top point -->
  <rect x="15" y="4" width="2" height="1" fill="url(#amethyst-gradient)"/>
  
  <!-- Second row -->
  <rect x="14" y="5" width="1" height="1" fill="url(#amethyst-gradient)"/>
  <rect x="15" y="5" width="2" height="1" fill="url(#highlight-gradient)"/>
  <rect x="17" y="5" width="1" height="1" fill="url(#amethyst-gradient)"/>
  
  <!-- Third row -->
  <rect x="13" y="6" width="1" height="1" fill="url(#amethyst-gradient)"/>
  <rect x="14" y="6" width="4" height="1" fill="url(#highlight-gradient)"/>
  <rect x="18" y="6" width="1" height="1" fill="url(#amethyst-gradient)"/>
  
  <!-- Fourth row -->
  <rect x="12" y="7" width="1" height="1" fill="url(#amethyst-gradient)"/>
  <rect x="13" y="7" width="6" height="1" fill="url(#highlight-gradient)"/>
  <rect x="19" y="7" width="1" height="1" fill="url(#amethyst-gradient)"/>
  
  <!-- Fifth row -->
  <rect x="11" y="8" width="1" height="1" fill="url(#amethyst-gradient)"/>
  <rect x="12" y="8" width="8" height="1" fill="url(#highlight-gradient)"/>
  <rect x="20" y="8" width="1" height="1" fill="url(#amethyst-gradient)"/>
  
  <!-- Sixth row -->
  <rect x="10" y="9" width="1" height="1" fill="url(#amethyst-gradient)"/>
  <rect x="11" y="9" width="2" height="1" fill="url(#highlight-gradient)"/>
  <rect x="13" y="9" width="6" height="1" fill="url(#amethyst-gradient)"/>
  <rect x="19" y="9" width="2" height="1" fill="url(#highlight-gradient)"/>
  <rect x="21" y="9" width="1" height="1" fill="url(#amethyst-gradient)"/>
  
  <!-- Seventh row -->
  <rect x="9" y="10" width="1" height="1" fill="url(#amethyst-gradient)"/>
  <rect x="10" y="10" width="3" height="1" fill="url(#highlight-gradient)"/>
  <rect x="13" y="10" width="6" height="1" fill="url(#amethyst-gradient)"/>
  <rect x="19" y="10" width="3" height="1" fill="url(#highlight-gradient)"/>
  <rect x="22" y="10" width="1" height="1" fill="url(#amethyst-gradient)"/>
  
  <!-- Eighth row -->
  <rect x="8" y="11" width="1" height="1" fill="url(#amethyst-gradient)"/>
  <rect x="9" y="11" width="4" height="1" fill="url(#highlight-gradient)"/>
  <rect x="13" y="11" width="6" height="1" fill="url(#amethyst-gradient)"/>
  <rect x="19" y="11" width="4" height="1" fill="url(#highlight-gradient)"/>
  <rect x="23" y="11" width="1" height="1" fill="url(#amethyst-gradient)"/>
  
  <!-- Ninth row -->
  <rect x="8" y="12" width="1" height="1" fill="url(#amethyst-gradient)"/>
  <rect x="9" y="12" width="4" height="1" fill="url(#highlight-gradient)"/>
  <rect x="13" y="12" width="6" height="1" fill="url(#amethyst-gradient)"/>
  <rect x="19" y="12" width="4" height="1" fill="url(#highlight-gradient)"/>
  <rect x="23" y="12" width="1" height="1" fill="url(#amethyst-gradient)"/>
  
  <!-- Tenth row -->
  <rect x="9" y="13" width="1" height="1" fill="url(#amethyst-gradient)"/>
  <rect x="10" y="13" width="3" height="1" fill="url(#highlight-gradient)"/>
  <rect x="13" y="13" width="6" height="1" fill="url(#amethyst-gradient)"/>
  <rect x="19" y="13" width="3" height="1" fill="url(#highlight-gradient)"/>
  <rect x="22" y="13" width="1" height="1" fill="url(#amethyst-gradient)"/>
  
  <!-- Eleventh row -->
  <rect x="10" y="14" width="1" height="1" fill="url(#amethyst-gradient)"/>
  <rect x="11" y="14" width="2" height="1" fill="url(#highlight-gradient)"/>
  <rect x="13" y="14" width="6" height="1" fill="url(#amethyst-gradient)"/>
  <rect x="19" y="14" width="2" height="1" fill="url(#highlight-gradient)"/>
  <rect x="21" y="14" width="1" height="1" fill="url(#amethyst-gradient)"/>
  
  <!-- Twelfth row -->
  <rect x="11" y="15" width="1" height="1" fill="url(#amethyst-gradient)"/>
  <rect x="12" y="15" width="8" height="1" fill="url(#amethyst-gradient)"/>
  <rect x="20" y="15" width="1" height="1" fill="url(#amethyst-gradient)"/>
  
  <!-- Bottom rows getting narrower -->
  <rect x="12" y="16" width="1" height="1" fill="url(#amethyst-gradient)"/>
  <rect x="13" y="16" width="6" height="1" fill="url(#amethyst-gradient)"/>
  <rect x="19" y="16" width="1" height="1" fill="url(#amethyst-gradient)"/>
  
  <rect x="13" y="17" width="1" height="1" fill="url(#amethyst-gradient)"/>
  <rect x="14" y="17" width="4" height="1" fill="url(#amethyst-gradient)"/>
  <rect x="18" y="17" width="1" height="1" fill="url(#amethyst-gradient)"/>
  
  <rect x="14" y="18" width="1" height="1" fill="url(#amethyst-gradient)"/>
  <rect x="15" y="18" width="2" height="1" fill="url(#amethyst-gradient)"/>
  <rect x="17" y="18" width="1" height="1" fill="url(#amethyst-gradient)"/>
  
  <!-- Bottom point -->
  <rect x="15" y="19" width="2" height="1" fill="url(#amethyst-gradient)"/>
  
  <!-- Inner highlight details -->
  <rect x="15" y="8" width="2" height="1" fill="url(#highlight-gradient)" opacity="0.8"/>
  <rect x="14" y="10" width="1" height="1" fill="url(#highlight-gradient)" opacity="0.6"/>
  <rect x="17" y="10" width="1" height="1" fill="url(#highlight-gradient)" opacity="0.6"/>
  <rect x="15" y="12" width="2" height="1" fill="url(#highlight-gradient)" opacity="0.4"/>
</svg>